<!-- icon666.com - MILLIONS vector ICONS FREE --><svg viewBox="0 0 64 64" xmlns="http://www.w3.org/2000/svg"><g id="_09_Nerd" data-name="09 Nerd"><path d="m32.01 2a30 30 0 1 0 30 30 30.034 30.034 0 0 0 -30-30z" fill="#ffd93b" style="fill: rgb(255, 204, 0);"></path><path d="m48 38.55c0 7.42-9.71 13-16 13s-16-5.58-16-13c0-2.46 3-2.52 3.98-2.54a50.734 50.734 0 0 1 5.52.18 58.863 58.863 0 0 0 13 0 51.268 51.268 0 0 1 5.54-.18c.96.02 3.96.08 3.96 2.54z" fill="#3e4347"></path><path d="m29.51 17h-22.438a3.563 3.563 0 0 0 -3.562 3.563v4.25a9.187 9.187 0 0 0 9.19 9.187h7.9a8.906 8.906 0 0 0 8.906-8.906z" fill="#65b1ef" style="fill: rgb(38, 130, 10);"></path><path d="m58.02 17h-23.948v8.24a8.76 8.76 0 0 0 8.761 8.76h8.479a8.76 8.76 0 0 0 8.76-8.76v-6.188a2.052 2.052 0 0 0 -2.052-2.052z" fill="#65b1ef" style="fill: rgb(38, 130, 10);"></path><path d="m32 44.67a9.46 9.46 0 0 0 -8.24 4.482 18.012 18.012 0 0 0 8.24 2.398 17.8 17.8 0 0 0 8.255-2.379 9.467 9.467 0 0 0 -8.255-4.501z" fill="#e24b4b" style="fill: rgb(209, 31, 31);"></path><path d="m38.5 36.19v5.81a1 1 0 0 1 -1 1h-11a1 1 0 0 1 -1-1v-5.81a58.863 58.863 0 0 0 13 0z" fill="#fff" style="fill: rgb(255, 255, 255);"></path><path d="m44.04 36.01q-3.779.005-7.54.33a48.328 48.328 0 0 1 -9 0q-3.751-.324-7.52-.33c-.98.02-3.98.08-3.98 2.54 0 7.652 9.708 13.321 16.65 12.98 6.58-.323 15.35-5.712 15.35-12.98 0-2.46-3-2.52-3.96-2.54zm-12.04 2.54c1.5 0 3-.1 4.5-.21v2.66h-9v-2.66c1.5.11 3 .21 4.5.21zm-3.84 10.33q-.616-.2-1.22-.44a8.12 8.12 0 0 1 10.15.02 13.1 13.1 0 0 1 -8.93.42zm10.88-1.31a10 10 0 0 0 -14.04-.04c-3.76-2-7-5.31-7-8.98 0-.71 2.77-.56 3.12-.56 1.47 0 2.93.09 4.38.2v3.81a1 1 0 0 0 1 1h11a1 1 0 0 0 1-1v-3.81a47.779 47.779 0 0 1 5.48-.18c.61.01 2.02.09 2.02.54 0 3.73-3.2 7.04-6.96 9.02zm22.96-27.57a3.009 3.009 0 0 0 -3-3h-1.03a29.981 29.981 0 0 0 -51.94 0h-1.03a3.009 3.009 0 0 0 -3 3v5a8.777 8.777 0 0 0 .35 2.47 29.46 29.46 0 0 0 -.35 4.53 30 30 0 0 0 60 0 29.46 29.46 0 0 0 -.35-4.53 8.777 8.777 0 0 0 .35-2.47zm-30-16a27.953 27.953 0 0 1 23.62 13h-47.24a27.953 27.953 0 0 1 23.62-13zm-1 15h2v5a1 1 0 0 1 -2 0zm-27 1a1 1 0 0 1 .96-1h24.04v6a7.008 7.008 0 0 1 -7 7h-11a7.078 7.078 0 0 1 -7-7zm56 12a28.031 28.031 0 0 1 -28 28c-15.461 0-29.054-13.618-27.96-29.31a8.974 8.974 0 0 0 6.96 3.31h11a9.021 9.021 0 0 0 8.83-7.24 2.972 2.972 0 0 0 2.34 0 9.021 9.021 0 0 0 8.83 7.24h11a8.974 8.974 0 0 0 6.96-3.31c.03.43.04.87.04 1.31zm0-7a7.078 7.078 0 0 1 -7 7h-11a7.008 7.008 0 0 1 -7-7v-6h24.04a1 1 0 0 1 .96 1zm-36.139 1.781-9.2 3.535a1 1 0 0 1 -.717-1.867l9.2-3.535a1 1 0 0 1 .717 1.867zm32.024-4.814-16.054 6.166a1 1 0 0 1 -.717-1.867l16.055-6.166a1 1 0 0 1 .717 1.867zm-31.012 0-16.054 6.166a1 1 0 0 1 -.719-1.867l16.056-6.166a1 1 0 0 1 .717 1.867zm29.805 4.814-9.2 3.535a1 1 0 0 1 -.717-1.867l9.2-3.535a1 1 0 0 1 .718 1.867zm-17.954-14.881c.167-.1 4.126-2.49 8.11-1.469a8.061 8.061 0 0 1 5.034 4.069 1 1 0 0 1 -1.736.992 6.14 6.14 0 0 0 -3.785-3.127c-3.153-.815-6.546 1.215-6.58 1.235a1 1 0 0 1 -1.043-1.7zm-10.491 1.7c-.034-.021-3.43-2.053-6.58-1.235a6.14 6.14 0 0 0 -3.785 3.135 1 1 0 0 1 -1.736-.992 8.061 8.061 0 0 1 5.034-4.075c3.98-1.021 7.943 1.367 8.11 1.469a1 1 0 0 1 -1.043 1.698z" fill="#000000" style="fill: rgb(0, 0, 0);"></path></g></svg>